<?xml version="1.0" encoding="UTF-8"?>
<!DOCTYPE svg PUBLIC "-//W3C//DTD SVG 1.1//EN" "http://www.w3.org/Graphics/SVG/1.1/DTD/svg11.dtd">
<svg xmlns="http://www.w3.org/2000/svg" version="1.1" width="986px" height="790px" style="shape-rendering:geometricPrecision; text-rendering:geometricPrecision; image-rendering:optimizeQuality; fill-rule:evenodd; clip-rule:evenodd" xmlns:xlink="http://www.w3.org/1999/xlink">
<g><path style="opacity:0.928" fill="#7ca927" d="M 542.5,7.5 C 545.561,7.44431 547.728,8.77764 549,11.5C 553.2,31.9338 546.7,47.7671 529.5,59C 525.296,61.6586 522.129,60.8252 520,56.5C 517.035,46.7888 517.035,37.1222 520,27.5C 526.105,19.2264 533.605,12.5597 542.5,7.5 Z"/></g>
<g><path style="opacity:0.963" fill="#7ca927" d="M 471.5,17.5 C 498.27,15.116 513.77,27.116 518,53.5C 519.653,58.8912 518.153,63.0579 513.5,66C 502.672,68.2464 492.338,71.9131 482.5,77C 470.561,81.0706 460.395,78.5706 452,69.5C 442.998,57.4954 438.165,43.9954 437.5,29C 439.193,26.3103 441.527,24.3103 444.5,23C 453.42,20.0739 462.42,18.2406 471.5,17.5 Z"/></g>
<g><path style="opacity:0.988" fill="#fe9b02" d="M 673.5,155.5 C 666.645,152.909 660.312,149.575 654.5,145.5C 655.849,141.783 657.182,138.116 658.5,134.5C 658.594,132.088 657.594,130.255 655.5,129C 649.963,125.273 643.963,122.773 637.5,121.5C 637.66,123.199 637.494,124.866 637,126.5C 635.073,132.009 632.906,137.342 630.5,142.5C 621.238,141.04 611.904,140.207 602.5,140C 602.043,139.586 601.709,139.086 601.5,138.5C 605.285,126.361 608.285,114.027 610.5,101.5C 594.851,101.412 579.517,103.579 564.5,108C 552.271,111.743 540.271,116.076 528.5,121C 519.869,124.562 512.369,129.729 506,136.5C 505.333,137.5 505.333,138.5 506,139.5C 510.333,142.5 514.667,145.5 519,148.5C 536.749,136.747 556.249,129.414 577.5,126.5C 577.37,132.182 576.37,137.682 574.5,143C 555.902,150.215 539.735,161.048 526,175.5C 520.047,185.359 519.047,195.693 523,206.5C 529.149,215.445 537.649,218.945 548.5,217C 562.126,213.429 572.626,205.596 580,193.5C 586.765,183.97 591.932,173.637 595.5,162.5C 603.517,162.501 611.517,162.834 619.5,163.5C 616.139,175.563 611.639,187.23 606,198.5C 598.22,212.395 590.72,226.395 583.5,240.5C 561.343,241.146 539.343,239.646 517.5,236C 503.176,232.533 492.176,224.699 484.5,212.5C 472.171,176.235 470.671,139.569 480,102.5C 483.858,89.3082 492.024,79.8082 504.5,74C 523.48,63.7121 543.813,59.0455 565.5,60C 571.833,59.3333 578.167,59.3333 584.5,60C 596.411,61.953 608.411,62.953 620.5,63C 628.739,65.4568 636.739,68.4568 644.5,72C 649.238,76.6864 654.071,81.1864 659,85.5C 667.005,108.184 671.838,131.518 673.5,155.5 Z"/></g>
<g><path style="opacity:0.998" fill="#fffdfb" d="M 673.5,155.5 C 674.707,164.536 674.373,173.536 672.5,182.5C 662.792,178.597 652.792,175.264 642.5,172.5C 630.663,195.526 617.33,217.526 602.5,238.5C 597.212,239.495 591.879,240.495 586.5,241.5C 585.274,241.48 584.274,241.147 583.5,240.5C 590.72,226.395 598.22,212.395 606,198.5C 611.639,187.23 616.139,175.563 619.5,163.5C 611.517,162.834 603.517,162.501 595.5,162.5C 591.932,173.637 586.765,183.97 580,193.5C 572.626,205.596 562.126,213.429 548.5,217C 537.649,218.945 529.149,215.445 523,206.5C 519.047,195.693 520.047,185.359 526,175.5C 539.735,161.048 555.902,150.215 574.5,143C 576.37,137.682 577.37,132.182 577.5,126.5C 556.249,129.414 536.749,136.747 519,148.5C 514.667,145.5 510.333,142.5 506,139.5C 505.333,138.5 505.333,137.5 506,136.5C 512.369,129.729 519.869,124.562 528.5,121C 540.271,116.076 552.271,111.743 564.5,108C 579.517,103.579 594.851,101.412 610.5,101.5C 608.285,114.027 605.285,126.361 601.5,138.5C 601.709,139.086 602.043,139.586 602.5,140C 611.904,140.207 621.238,141.04 630.5,142.5C 632.906,137.342 635.073,132.009 637,126.5C 637.494,124.866 637.66,123.199 637.5,121.5C 643.963,122.773 649.963,125.273 655.5,129C 657.594,130.255 658.594,132.088 658.5,134.5C 657.182,138.116 655.849,141.783 654.5,145.5C 660.312,149.575 666.645,152.909 673.5,155.5 Z"/></g>
<g><path style="opacity:1" fill="#ff9d0e" d="M 566.5,163.5 C 567.5,163.5 568.5,163.5 569.5,163.5C 567.412,172.685 563.912,181.351 559,189.5C 554.432,196.037 548.265,198.537 540.5,197C 538.274,195.38 536.94,193.214 536.5,190.5C 537.812,183.363 541.478,177.863 547.5,174C 553.895,170.472 560.229,166.972 566.5,163.5 Z"/></g>
<g><path style="opacity:0.995" fill="#fe9b03" d="M 672.5,182.5 C 672.015,188.59 671.015,194.59 669.5,200.5C 667.711,204.265 666.211,208.265 665,212.5C 655.266,223.546 643.1,230.379 628.5,233C 619.892,235.148 611.225,236.981 602.5,238.5C 617.33,217.526 630.663,195.526 642.5,172.5C 652.792,175.264 662.792,178.597 672.5,182.5 Z"/></g>
<g><path style="opacity:0.995" fill="#bc924f" d="M 484.5,212.5 C 492.176,224.699 503.176,232.533 517.5,236C 539.343,239.646 561.343,241.146 583.5,240.5C 584.274,241.147 585.274,241.48 586.5,241.5C 591.879,240.495 597.212,239.495 602.5,238.5C 611.225,236.981 619.892,235.148 628.5,233C 643.1,230.379 655.266,223.546 665,212.5C 666.211,208.265 667.711,204.265 669.5,200.5C 707.808,206.261 745.808,213.761 783.5,223C 815.055,234.572 846.055,247.405 876.5,261.5C 871.07,274.032 865.903,286.698 861,299.5C 856.565,316.343 852.898,333.343 850,350.5C 846.561,412.329 850.561,473.662 862,534.5C 865.481,547.793 869.815,560.793 875,573.5C 877.597,579.242 880.763,584.576 884.5,589.5C 861.778,595.763 838.778,600.93 815.5,605C 777.648,610.036 739.648,613.203 701.5,614.5C 699.532,631.573 697.032,648.573 694,665.5C 693.941,668.822 692.774,671.656 690.5,674C 669.238,677.494 647.905,679.327 626.5,679.5C 609.72,680.906 592.886,681.906 576,682.5C 537.845,682.402 499.679,682.235 461.5,682C 425.51,679.867 389.51,677.867 353.5,676C 304.977,672.617 257.977,662.451 212.5,645.5C 211.673,640.542 211.34,635.709 211.5,631C 214.583,613.257 217.083,595.424 219,577.5C 220.948,565.425 223.282,553.425 226,541.5C 240.447,491.49 258.447,442.824 280,395.5C 282.333,392.5 284.667,389.5 287,386.5C 306.564,351.118 329.064,317.785 354.5,286.5C 351.103,280.249 348.936,273.583 348,266.5C 346.2,253.702 344.7,240.869 343.5,228C 343.635,211.214 351.801,201.047 368,197.5C 392.313,201.74 414.479,211.073 434.5,225.5C 437.966,223.511 441.632,222.011 445.5,221C 458.827,219.054 471.827,216.221 484.5,212.5 Z"/></g>
<g><path style="opacity:1" fill="#886d43" d="M 371.5,219.5 C 384.832,219.252 395.666,224.252 404,234.5C 405.594,242.815 403.094,249.648 396.5,255C 391.833,257.667 387.167,260.333 382.5,263C 377.788,264.443 373.955,263.277 371,259.5C 365.639,248.753 363.639,237.42 365,225.5C 367.063,223.266 369.229,221.266 371.5,219.5 Z"/></g>
<g><path style="opacity:0.991" fill="#886d43" d="M 876.5,261.5 C 907.897,273.271 935.397,290.938 959,314.5C 970.269,329.716 975.769,346.883 975.5,366C 974.78,411.596 968.613,456.429 957,500.5C 951.56,520.5 943.226,539.166 932,556.5C 919.553,572.458 903.72,583.458 884.5,589.5C 880.763,584.576 877.597,579.242 875,573.5C 869.815,560.793 865.481,547.793 862,534.5C 850.561,473.662 846.561,412.329 850,350.5C 852.898,333.343 856.565,316.343 861,299.5C 865.903,286.698 871.07,274.032 876.5,261.5 Z"/></g>
<g><path style="opacity:1" fill="#503e31" d="M 589.5,306.5 C 611.503,306.333 633.503,306.5 655.5,307C 668.279,306.544 679.612,310.211 689.5,318C 698.085,332.008 700.918,347.175 698,363.5C 693.077,381.414 682.577,394.914 666.5,404C 637.522,419.287 607.522,421.621 576.5,411C 536.929,393.632 525.096,364.798 541,324.5C 545.671,319.498 551.171,315.665 557.5,313C 568.196,310.361 578.863,308.194 589.5,306.5 Z"/></g>
<g><path style="opacity:1" fill="#fdfdfd" d="M 630.5,318.5 C 638.299,319.817 646.299,320.483 654.5,320.5C 660.249,321.187 665.916,322.353 671.5,324C 674.037,326.906 676.204,330.073 678,333.5C 683.814,356.111 677.98,374.944 660.5,390C 634.83,403.876 608.163,406.209 580.5,397C 600.982,396.29 618.148,388.457 632,373.5C 643.432,354.078 641.599,335.911 626.5,319C 627.793,318.51 629.127,318.343 630.5,318.5 Z"/></g>
<g><path style="opacity:1" fill="#796a60" d="M 630.5,318.5 C 636.842,318.334 643.175,318.5 649.5,319C 651.382,319.198 653.048,319.698 654.5,320.5C 646.299,320.483 638.299,319.817 630.5,318.5 Z"/></g>
<g><path style="opacity:1" fill="#fbfafa" d="M 565.5,323.5 C 583.545,322.702 589.378,330.702 583,347.5C 576.173,355.558 568.007,357.391 558.5,353C 553.251,347.691 551.751,341.524 554,334.5C 557.07,329.927 560.904,326.261 565.5,323.5 Z"/></g>
<g><path style="opacity:1" fill="#4f3d30" d="M 899.5,333.5 C 909.714,333.695 917.214,338.362 922,347.5C 926.167,355.326 929.334,363.492 931.5,372C 930.403,385.079 923.736,389.079 911.5,384C 903.345,376.177 897.178,367.01 893,356.5C 892.333,350.833 892.333,345.167 893,339.5C 894.872,337.153 897.039,335.153 899.5,333.5 Z"/></g>
<g><path style="opacity:1" fill="#896d43" d="M 335.5,425.5 C 348.491,423.992 353.658,429.659 351,442.5C 349.084,450.171 345.25,456.671 339.5,462C 325.491,466.223 319.991,461.056 323,446.5C 324.969,438.066 329.136,431.066 335.5,425.5 Z"/></g>
<g><path style="opacity:1" fill="#896d43" d="M 354.5,490.5 C 360.114,489.414 364.614,491.08 368,495.5C 369.915,511.759 365.081,525.592 353.5,537C 350.298,538.483 346.964,538.817 343.5,538C 336.382,529.143 335.548,519.643 341,509.5C 343.843,501.849 348.343,495.516 354.5,490.5 Z"/></g>
<g><path style="opacity:1" fill="#886d43" d="M 302.5,495.5 C 308.386,494.343 313.219,496.01 317,500.5C 319.466,518.78 314.799,535.113 303,549.5C 297.774,556.006 291.774,557.006 285,552.5C 281.229,545.117 280.562,537.45 283,529.5C 285.642,515.874 292.142,504.541 302.5,495.5 Z"/></g>
<g><path style="opacity:1" fill="#896d43" d="M 327.5,563.5 C 335.132,563.296 340.632,566.629 344,573.5C 346.088,586.474 342.588,597.641 333.5,607C 329.106,609.374 324.44,610.041 319.5,609C 317.094,607.378 315.261,605.211 314,602.5C 313.333,596.167 313.333,589.833 314,583.5C 315.288,574.569 319.788,567.902 327.5,563.5 Z"/></g>
<g><path style="opacity:0.927" fill="#82878c" d="M 158.5,574.5 C 163.742,574.023 168.742,574.856 173.5,577C 178.833,581 178.833,585 173.5,589C 169.317,590.796 164.984,592.129 160.5,593C 118.413,599.252 78.4128,611.919 40.5,631C 34.0338,634.935 30.0338,640.601 28.5,648C 32.4081,653.914 37.0747,659.247 42.5,664C 50.0001,668.918 57.6667,673.584 65.5,678C 79.3301,684.218 92.9968,690.718 106.5,697.5C 110.705,702.316 110.372,706.816 105.5,711C 99.9198,712.517 94.2531,712.851 88.5,712C 68.2796,706.555 49.6129,697.888 32.5,686C 28.8694,682.19 24.8694,678.857 20.5,676C 10.7973,668.096 5.13068,657.929 3.5,645.5C 4.21554,637.905 7.21554,631.405 12.5,626C 26.0603,615.046 41.0603,606.38 57.5,600C 90.518,588.496 124.185,579.996 158.5,574.5 Z"/></g>
<g><path style="opacity:1" fill="#896e43" d="M 278.5,587.5 C 288.158,587.322 293.158,592.155 293.5,602C 293.053,609.886 290.386,616.886 285.5,623C 274.622,627.337 268.622,623.504 267.5,611.5C 267.737,601.732 271.404,593.732 278.5,587.5 Z"/></g>
<g><path style="opacity:0.909" fill="#82878c" d="M 766.5,642.5 C 792.311,642.832 814.478,651.832 833,669.5C 835.167,673.167 837.333,676.833 839.5,680.5C 841.653,688.745 840.486,696.412 836,703.5C 830.791,708.378 825.291,712.878 819.5,717C 803.474,726.458 786.474,733.791 768.5,739C 708.483,756.098 647.316,766.598 585,770.5C 580.82,769.747 576.653,768.913 572.5,768C 564.489,759.058 566.156,752.724 577.5,749C 643.093,746.297 707.426,735.964 770.5,718C 785.67,713.619 799.67,706.953 812.5,698C 818.104,691.803 818.937,684.969 815,677.5C 801.225,665.864 785.391,658.364 767.5,655C 761.556,650.882 761.223,646.715 766.5,642.5 Z"/></g>
<g><path style="opacity:0.004" fill="#bc934f" d="M 215.5,668.5 C 214.833,667.167 214.833,667.167 215.5,668.5 Z"/></g>
<g><path style="opacity:0.072" fill="#bc934f" d="M 215.5,668.5 C 217.429,668.231 219.095,668.731 220.5,670C 218.326,670.877 216.659,670.377 215.5,668.5 Z"/></g>
<g><path style="opacity:0.055" fill="#82878c" d="M 845.5,677.5 C 846.117,677.611 846.617,677.944 847,678.5C 847.273,686.094 846.773,685.761 845.5,677.5 Z"/></g>
<g><path style="opacity:0.012" fill="#82878c" d="M 140.5,710.5 C 140.897,709.475 141.563,709.308 142.5,710C 141.906,710.464 141.239,710.631 140.5,710.5 Z"/></g>
<g><path style="opacity:0.01" fill="#82878c" d="M 140.5,710.5 C 140.103,711.525 139.437,711.692 138.5,711C 139.094,710.536 139.761,710.369 140.5,710.5 Z"/></g>
<g><path style="opacity:0.004" fill="#82878c" d="M 840.5,710.5 C 841.833,711.167 841.833,711.167 840.5,710.5 Z"/></g>
<g><path style="opacity:0.004" fill="#82878c" d="M 133.5,713.5 C 134.833,714.167 134.833,714.167 133.5,713.5 Z"/></g>
<g><path style="opacity:0.928" fill="#82878c" d="M 158.5,714.5 C 184.475,720.994 210.475,727.494 236.5,734C 279.636,743.978 323.303,750.311 367.5,753C 397.518,754.076 427.518,755.409 457.5,757C 460.993,757.942 464.326,759.275 467.5,761C 471.5,764.333 471.5,767.667 467.5,771C 464.911,772.197 462.244,773.197 459.5,774C 445.524,775.122 431.524,775.955 417.5,776.5C 367.989,774.368 318.655,770.202 269.5,764C 230.78,757.486 192.78,748.153 155.5,736C 150.785,733.951 147.451,730.618 145.5,726C 145.696,722.733 147.03,720.066 149.5,718C 152.662,716.973 155.662,715.806 158.5,714.5 Z"/></g>
</svg>
