<?xml version="1.0" encoding="UTF-8"?>
<!DOCTYPE svg PUBLIC "-//W3C//DTD SVG 1.1//EN" "http://www.w3.org/Graphics/SVG/1.1/DTD/svg11.dtd">
<svg
   version="1.1"
   width="986"
   height="790"
   xmlns="http://www.w3.org/2000/svg"
   xmlns:svg="http://www.w3.org/2000/svg">
  <path
     d="m 483.363,212.11 c 51.312,-10.877 133.424,-15.446 186.381,-10.393 37.103,3.54 75.508,12.448 111.855,22.792 31.734,9.031 77.382,27.967 96.905,37.23 -1.492,22.117 0.18907,302.47037 4.64107,327.46337 -22.59668,7.68712 -69.657,16.51127 -91.74124,18.83777 C 776.37884,609.62311 731.108,613.682 702,615 c -0.105,1.674 -0.834,14.977 -1.335,20.968 -0.615,7.363 -0.758,19.413 -5.119,24.234 -3.937,4.353 -19.317,11.139 -37.579,14.693 -35.984,7.004 -100.964,18.367 -195.229,18.289 -83.599,-0.069 -139.355,-4.693 -196.469,-17.351 -34.886,-7.732 -51.554,-14.756 -54.292,-21.251 -1.626,-3.858 -1.115,-12.576 -0.872,-15.737 0.706,-9.207 2.271,-20.911 3.741,-31.34 0.468,-3.33 11.252,-77.561 41.702,-155.748 22.443,-57.626 58.178,-111.892 67.329,-124.278 7.255,-9.82 26.4,-33.939 31.017,-38.941 -2.439,-6.191 -7.401,-16.686 -9.568,-25.5 -2.169,-8.819 -8.558,-25.457 0.752,-47.934 3.655,-8.824 10.282,-14.441 17.072,-17.253 9.256,-3.834 21.067,-2.199 30.505,0.92 6.814,2.252 18.935,8.228 28.674,16.248 4.202,3.461 9.434,7.874 13.099,10.801 1.647,-0.506 24.293,-8.698 47.935,-13.71 z"
     fill="#bc924f" />
  <path
     d="M 0 5.116 C 11.991 16.645 19.354 43.776 20.862 70.423 C 22.275 95.393 20.93 106.97 19.383 118.367 C 17.892 129.352 13.277 137.72 4.738 144.816 C -7.836 153.742 -38.184 164.765 -63.99 166.725 C -90.959 168.774 -123.235 169.498 -152.812 153.625 C -165.565 145.631 -169.914 134.073 -173.25 119.938 C -179.58 91.597 -180.196 64.709 -175.25 35.938 C -172.289 18.713 -163.502 7.671 -152.123 1.783 C -116.187 -16.811 -24.543 -18.482 0 5.116 Z"
     fill="#FE9B00"
     transform="translate(653.25,76.0625)" />
  <path
     d="m 0,-1.037 c 21.021,9.09 40.396,20.442 55.425,29.773 25.471,15.814 35.183,34.283 39.841,48.625 3.303,10.169 7.377,49.445 -0.061,111.402 C 88.692,243.014 79.961,274.437 53.616,299.676 43.143,309.709 19.685141,322.49886 6,327.466 0.192,314.091 -4.95,300.078 -10.595,278.154 -18.291,248.267 -25.072,200.084 -24.312,127.64 -23.71,70.249 -15.616,29.65 0,-1.037 Z"
     fill="#886d43"
     transform="translate(877,262)" />
  <path
     d="M -48.076 6.665 C -36.916 3.654 -24.183 0.228 6.269 -0.932 C 37.823 -2.134 59.215 -0.331 66.189 1.252 C 73.163 2.835 76.955 4.926 82.059 11.059 C 87.997 18.194 91.716 32.061 91.565 40.785 C 91.263 58.249 89.164 65.996 79.565 80.954 C 72.786 91.517 44.359 111.54 9.81 110.725 C -24.739 109.91 -41.54 99.822 -51.414 91.354 C -61.288 82.886 -69.69 70.091 -72.472 54.12 C -75.254 38.149 -71.212 28.834 -67.852 21.668 C -66.064 18.375 -58.675 9.525 -48.076 6.665 Z"
     fill="#503E31"
     transform="translate(607.2265625,306.83203125)" />
  <path
     d="M -23.812 2.063 C -16.334 0.97 -7.873 -0.194 4 0 C 3.551 8.331 2.925 11.262 0.732 21.156 C -0.891 28.476 -2.581 33.857 -4.112 38.56 C 5.692 38.37 18.016 39.17 24 40 C 28.438 30.356 29.693 25.728 32 19 C 36.47 20.338 40.24 22.122 44.25 24.5 C 45.805 25.413 50.449 28.561 52.449 30.561 C 51.387 35.999 49.412 40.831 47 46 C 50.194 46.994 53.26 48.033 57.058 49.434 C 60.746 50.795 65.273 52.771 67.569 54.197 C 68.177 69.827 67.521 71.611 67.052 80.85 C 57.933 77.172 46.823 73.273 35.379 70.499 C 27.469 88.611 14.316 113.581 -2.996 138.673 C -12.427 140.486 -18.127 140.835 -25.701 141.122 C -17.617 127.804 -11.794 119.463 -3.362 103.011 C 4.542 87.59 6.702 81.225 13.327 65.253 C 3.399 63.245 -2.885 62.64 -10 62 C -10.928 64.289 -15.437 73.498 -19.335 80.634 C -24.772 90.588 -28.888 97.224 -37.109 105.105 C -45.63 113.274 -54.391 116.432 -66.152 116.273 C -72.417 115.672 -77.191 113.251 -81.437 108.625 C -86.084 102.537 -86.577 96.466 -86 89 C -83.373 75.413 -76.26 66.261 -67.105 59.412 C -53.66 49.353 -42.091 45.555 -31.365 42.391 C -30.304 35.538 -29.149 29.902 -28.663 24.438 C -47.297 28.081 -69.543 35.926 -88 47 C -92.29 44.03 -96.58 41.06 -101 38 C -88.685 26.328 -69.346 15.678 -57.636 11.145 C -46.644 6.89 -35.476 3.768 -23.812 2.063 Z"
     fill="#FEBA5B"
     transform="translate(607,102)" />
  <path
     d="M 219.59 726.999 C 249.337 732.796 289.351 741.67 352.222 745.169 C 413.538 748.581 465.187 747.469 499.354 746.679 C 506.231 746.52 513.808 747.621 515.038 753.71 C 516.129 759.112 512.565 764.304 496.938 765.687 C 448.426 769.981 416.033 770.012 352.144 768.438 C 285.042 766.785 229.176 755.263 204.107 747.573 C 195.976 745.079 187.824 740.104 189.215 732.414 C 190.786 723.727 212.05 725.529 219.59 726.999 Z"
     fill="#83878D" />
  <path
     d="M 173.116 588.698 C 181.54 588.698 190 588.014 191 593.395 C 191.698 597.149 187.774 599.937 178.278 602.302 C 172.902 603.641 148.99 607.681 126.56 612.516 C 109.719 616.146 95.359 618.439 71.066 627.552 C 57.253 632.734 41.165 642.731 40.021 653.285 C 38.735 665.153 52.644 677.298 60.411 682.714 C 71.339 690.334 83.148 695.324 102.477 702.039 C 114.014 706.047 125.958 708.983 125.398 714.866 C 124.845 720.67 111.902 722.893 99.72 720.441 C 77.255 715.92 69.199 712.517 48.938 700.163 C 30.661 689.018 19.282 674.244 17 658.625 C 16.573 651.375 18.246 642.557 23.017 637.06 C 29.601 629.475 39.155 621.103 55.786 614.321 C 75.08 606.453 92.236 601.185 120.949 595.829 C 141.253 592.041 162.887 588.698 173.116 588.698 Z"
     fill="#83878D" />
  <path
     d="M -0.93 0.93 C 17.147 7.98 17.999 26.489 14.977 33.434 C 9.122 46.891 -10.789 62.306 -24.375 69.188 C -49.333 81.83 -83.979 94.286 -103.419 99.749 C -132.935 108.044 -164.126 112.102 -182.816 114.56 C -197.635 116.509 -222.09 118.091 -233.395 118.5 C -244.419 118.899 -258.164 118.08 -258.91 109.211 C -259.521 101.944 -235.649 99.541 -234.591 99.415 C -231.269 99.021 -202.753 96.587 -186.642 94.417 C -170.619 92.259 -145.495 89.832 -108.398 80.513 C -90.818 76.097 -55.637 63.069 -36.428 53.35 C -24.403 47.266 -6.691 34.486 -3.237 25.779 C 1.502 13.833 -15.119 11.539 -10.701 3.327 C -8.57 -0.633 -5.171 -0.724 -0.93 0.93 Z"
     fill="#83878D"
     transform="translate(825.375,640.8125)" />
  <path
     d="M -15.158 -5.635 C -3.54 -2.518 7.565 9.158 10.14 17.009 C 13.049 25.877 14.509 34.078 12.014 37.778 C 9.176 41.987 -0.516 46.842 -12.137 50.184 C -27.369 54.564 -35.577 55.441 -44.187 51.25 C -45.773 50.109 -53.415 47.699 -62.116 28.999 C -68.912 14.394 -67.84 3.153 -64.375 -0.312 C -56.124 -8.563 -35.561 -11.11 -15.158 -5.635 Z"
     fill="#7DA928"
     transform="translate(505.375,26.25)" />
  <path
     d="M 0 0 C 12.064 -1.3 26.446 -1.104 33.943 0.395 C 44.921 2.59 49.535 9.136 51.934 18.458 C 55.33 31.653 53.636 40.982 47.938 53.063 C 41.614 65.51 27.315 73.197 16.03 77.625 C 0.414 83.85 -16.459 84.066 -28.279 82.132 C -38.067 80.53 -47.555 76.979 -50.132 76.225 C -50.132 75.895 -43.008 76.89 -38.135 76.186 C -27.826 74.696 -16.548 71.332 -4.273 60.186 C 7.513 47.361 10.431 37.022 10.348 25.707 C 9.528 13.434 4.141 7.603 0 0 Z"
     fill="#FDFDFD"
     transform="translate(629,321)" />
  <path
     d="M 2.074 3.112 C 8.315 7.723 17.038 20.418 19.703 27.094 C 22.182 33.303 23.406 43.392 16.912 48.428 C 10.79 53.175 3.341 50.52 -0.067 47.876 C -9.205 40.786 -15.546 28.89 -18.27 19.004 C -20.155 12.162 -20.526 6.919 -15.27 2.004 C -10.634 -2.332 -3.91 -1.309 2.074 3.112 Z"
     fill="#4F3D30"
     transform="translate(915.26953125,334.99609375)" />
  <path
     d="M -0.636 -0.424 C 6.083 2.359 12.26 7.218 14.853 10.595 C 16.949 13.325 21.784 18.702 17.23 24.82 C 11.634 32.338 1.968 39.688 -5.77 42.82 C -11.45 45.119 -14.005 42.748 -17.196 39.919 C -21.307 36.275 -26.367 24.505 -26.906 18.416 C -27.805 8.267 -23.572 3.99 -19.888 1.218 C -15.461 -2.114 -7.6 -3.309 -0.636 -0.424 Z"
     fill="#886D43"
     transform="translate(388.76953125,221.1796875)" />
  <path
     d="M 0 0 C 4.201 3.452 3.42 26.981 -2.032 36.442 C -8.305 47.328 -20.724 51.331 -24 50 C -27.099 48.741 -26.894 27.756 -22.548 17.776 C -16.659 4.251 -2.812 -2.311 0 0 Z"
     fill="#7DA928"
     transform="translate(547,10)" />
  <path
     d="M -12.747 -0.224 C -1.6 -2.924 5.957 3.607 7.112 11.829 C 9.1 25.974 -3.442 31.162 -10.018 31.711 C -15.596 32.176 -27.113 29.626 -26.869 15.775 C -26.765 9.883 -23.295 2.331 -12.747 -0.224 Z"
     fill="#FAF9F9"
     transform="translate(579.375,325.25)" />
  <path
     d="M 571.124 164.905 C 566.956 177.92 562.127 189.854 556.477 194.654 C 552.902 197.691 545.659 201.332 540.061 197.624 C 537.125 195.679 536.76 190.166 537.736 186.783 C 539.194 181.729 541.982 178.517 546.836 174.867 C 554.214 170.169 562.878 167.025 571.124 164.905 Z"
     fill="#FF9B02" />
</svg>
